<svg width="272" height="131" viewBox="0 0 272 131" fill="none" xmlns="http://www.w3.org/2000/svg">
<rect width="272" height="131" rx="6" fill="#F9F9F9"/>
<g clip-path="url(#clip0_5202_11437)">
<path d="M129 64.6L131 62.6L136.5 68.1L140 64.6L143 67.6V58.5H129V64.6ZM129 67.429V72.5H132.1L135.086 69.515L131 65.429L129 67.429ZM134.929 72.5H143V70.429L140 67.429L134.929 72.5ZM128 56.5H144C144.265 56.5 144.52 56.6054 144.707 56.7929C144.895 56.9804 145 57.2348 145 57.5V73.5C145 73.7652 144.895 74.0196 144.707 74.2071C144.52 74.3946 144.265 74.5 144 74.5H128C127.735 74.5 127.48 74.3946 127.293 74.2071C127.105 74.0196 127 73.7652 127 73.5V57.5C127 57.2348 127.105 56.9804 127.293 56.7929C127.48 56.6054 127.735 56.5 128 56.5ZM139.5 63.5C139.102 63.5 138.721 63.342 138.439 63.0607C138.158 62.7794 138 62.3978 138 62C138 61.6022 138.158 61.2206 138.439 60.9393C138.721 60.658 139.102 60.5 139.5 60.5C139.898 60.5 140.279 60.658 140.561 60.9393C140.842 61.2206 141 61.6022 141 62C141 62.3978 140.842 62.7794 140.561 63.0607C140.279 63.342 139.898 63.5 139.5 63.5Z" fill="#03053D"/>
</g>
<defs>
<clipPath id="clip0_5202_11437">
<rect width="24" height="24" fill="white" transform="translate(124 53.5)"/>
</clipPath>
</defs>
</svg>
