<?xml version="1.0" encoding="UTF-8"?>
<svg version="1.1" xmlns="http://www.w3.org/2000/svg" width="512" height="252">
<path d="M0 0 C16.06263935 15.21370987 26.52355144 36.58030108 27.484375 58.86328125 C28.07388342 85.04705815 19.91044873 108.73142937 1.76269531 128.01416016 C-14.89941862 144.72455452 -37.8164713 153.70616634 -61.25390625 153.78515625 C-86.29371438 153.77367537 -108.92432272 143.96505735 -126.75390625 126.53515625 C-143.01786238 109.39057982 -151.31439153 86.08278611 -151.10742188 62.66699219 C-150.37281501 36.6933923 -139.17653398 15.15571892 -120.796875 -2.79296875 C-86.02057374 -34.36843783 -33.60768678 -30.08007143 0 0 Z " fill="#5EB9F0" transform="translate(317.75390625,66.46484375)"/>
<path d="M0 0 C3.89765776 1.95511542 7.41956365 4.21022104 9.421875 8.21484375 C9.77963942 15.04948606 8.81993605 20.83720266 7.08276367 27.42529297 C6.83398972 28.40380219 6.58521576 29.3823114 6.3289032 30.39047241 C5.50945859 33.60288168 4.67480925 36.81112452 3.83984375 40.01953125 C3.26318638 42.26694609 2.68746169 44.51460044 2.11262512 46.76248169 C0.59937811 52.66914523 -0.92692179 58.57236029 -2.45587158 64.47497559 C-4.0029339 70.45775801 -5.53683902 76.4439106 -7.07226562 82.4296875 C-9.32531331 91.20333397 -11.58226557 99.97595714 -13.85083008 108.74560547 C-14.08316345 109.64569336 -14.31549683 110.54578125 -14.55487061 111.47314453 C-16.17744318 117.73624166 -17.87543452 123.97164532 -19.578125 130.21484375 C-3.243125 130.70984375 -3.243125 130.70984375 13.421875 131.21484375 C13.36966797 127.62029297 13.36966797 127.62029297 13.31640625 123.953125 C13.29298639 121.62314036 13.27478371 119.29316902 13.25708008 116.96313477 C13.24202624 115.34816586 13.22157852 113.73323762 13.19555664 112.1184082 C13.15902214 109.7923782 13.14211485 107.46689034 13.12890625 105.140625 C13.11342239 104.42272293 13.09793854 103.70482086 13.08198547 102.96516418 C13.08050335 98.51519393 13.67155367 95.73953128 16.421875 92.21484375 C21.78645579 88.24505397 26.4987119 87.83668512 32.984375 87.77734375 C33.70447754 87.76727295 34.42458008 87.75720215 35.16650391 87.74682617 C41.25173442 87.84497505 45.98812777 89.22941838 50.796875 93.15234375 C54.01650781 97.23880078 53.53961294 101.54488389 53.51953125 106.60546875 C53.5181163 107.3100824 53.51670135 108.01469604 53.51524353 108.74066162 C53.50966433 110.98209959 53.49711573 113.22343618 53.484375 115.46484375 C53.47935731 116.9882798 53.47479487 118.51171743 53.47070312 120.03515625 C53.45970174 123.76175147 53.44245146 127.48828771 53.421875 131.21484375 C55.15824219 131.12783203 55.15824219 131.12783203 56.9296875 131.0390625 C58.46870948 130.9921411 60.00777533 130.94664349 61.546875 130.90234375 C62.68769531 130.83950195 62.68769531 130.83950195 63.8515625 130.77539062 C67.91478691 130.68782113 70.60102282 130.90174506 73.859375 133.46484375 C78.11339094 138.03012915 79.50471564 143.09330396 79.796875 149.27734375 C79.08292216 156.77384857 76.58474295 161.78721335 71.421875 167.21484375 C68.23362932 168.80896659 64.79290838 168.3165911 61.296875 168.27734375 C60.54277344 168.27283203 59.78867188 168.26832031 59.01171875 168.26367188 C57.14840373 168.25187874 55.28512945 168.23394317 53.421875 168.21484375 C53.43758545 169.27396973 53.4532959 170.3330957 53.46948242 171.42431641 C53.52397622 175.37150401 53.55829546 179.31865864 53.58666992 183.26611328 C53.60171238 184.97124838 53.62215153 186.67634507 53.64819336 188.38134766 C53.68477784 190.83896387 53.70164673 193.29606644 53.71484375 195.75390625 C53.73032761 196.51039459 53.74581146 197.26688293 53.76176453 198.04629517 C53.76327221 202.83892022 53.01580535 206.03562304 50.421875 210.21484375 C43.38340482 216.0535747 35.07885546 215.73311087 26.421875 215.21484375 C21.28907528 214.27727352 17.73810488 212.16426391 14.44741821 208.03485107 C12.5248896 204.62298493 12.81031159 201.13928394 12.93359375 197.31640625 C12.94066849 196.48144623 12.94774323 195.64648621 12.95503235 194.78622437 C12.98287575 192.13649402 13.04559094 189.48892816 13.109375 186.83984375 C13.13447107 185.036489 13.15728195 183.2331009 13.17773438 181.4296875 C13.23266889 177.02391392 13.31886788 172.61974496 13.421875 168.21484375 C12.49559296 168.2237262 11.56931091 168.23260864 10.61495972 168.24176025 C1.87549006 168.32198741 -6.8638555 168.38284951 -15.60360909 168.42209244 C-20.09657659 168.44294612 -24.5892392 168.47122292 -29.08203125 168.51660156 C-33.41978823 168.56013893 -37.75725238 168.58399755 -42.09521103 168.59435272 C-43.74820438 168.60172998 -45.40118213 168.61613622 -47.05405045 168.63776398 C-49.37378521 168.66690395 -51.69231799 168.67079549 -54.01220703 168.66894531 C-55.33125031 168.67782776 -56.65029358 168.68671021 -58.00930786 168.69586182 C-63.05094837 168.0163313 -65.97107851 165.9098471 -69.42678833 162.26499939 C-73.99559593 154.12944104 -69.14753374 142.40155932 -66.8359375 134.0546875 C-66.43532588 132.56833303 -66.03593419 131.08164931 -65.63766479 129.59466553 C-64.56499209 125.60370066 -63.47537749 121.61755236 -62.38195801 117.63222885 C-61.24185911 113.46726597 -60.11587433 109.29848934 -58.98828125 105.13012695 C-57.36002421 99.11681983 -55.72581807 93.10517881 -54.0850029 87.09528637 C-51.36159754 77.11916053 -48.67629701 67.13335136 -46.01028061 57.14175224 C-44.78919839 52.57090996 -43.5611324 48.0019415 -42.33222389 43.43319798 C-41.36110287 39.82206149 -40.39308305 36.21016359 -39.43267822 32.59616089 C-38.36869965 28.59451236 -37.28677792 24.59792785 -36.203125 20.6015625 C-35.89349823 19.42688416 -35.58387146 18.25220581 -35.26486206 17.04193115 C-33.02141588 8.85081667 -30.79418263 3.21057596 -23.578125 -1.78515625 C-15.69428238 -4.41310379 -7.54766936 -3.0648773 0 0 Z " fill="#5DB8F0" transform="translate(70.578125,17.78515625)"/>
<path d="M0 0 C2.97157097 1.89254045 5.39295144 3.78590288 7 7 C7.35742049 13.2651841 6.36965839 18.59356412 4.78442383 24.63452148 C4.54861603 25.56423264 4.31280823 26.49394379 4.06985474 27.451828 C3.29148326 30.51069468 2.49947727 33.56584584 1.70703125 36.62109375 C1.15775337 38.76592648 0.60923796 40.9109546 0.06144714 43.0561676 C-1.08871135 47.55222897 -2.24510013 52.04662294 -3.40649414 56.53979492 C-4.88312015 62.25282049 -6.34892726 67.96854538 -7.81055737 73.68542385 C-9.21742071 79.18582662 -10.63009739 84.68473181 -12.04296875 90.18359375 C-12.43821778 91.72518064 -12.43821778 91.72518064 -12.84145164 93.29791069 C-16.0019672 105.6075574 -19.33926464 117.82905256 -23 130 C-11.78 130 -0.56 130 11 130 C10.95359375 127.53144531 10.9071875 125.06289062 10.859375 122.51953125 C10.82815096 120.12005671 10.80387954 117.72060508 10.78027344 115.32104492 C10.76019793 113.65752987 10.73293124 111.99408504 10.69824219 110.33081055 C10.64954234 107.9352076 10.62699144 105.54054008 10.609375 103.14453125 C10.58872986 102.4047554 10.56808472 101.66497955 10.54681396 100.90278625 C10.5452493 97.27575635 10.87442342 95.19959059 12.82299805 92.10253906 C17.92439185 87.17563501 23.68917443 86.46887812 30.4375 86.5625 C31.18596191 86.56862305 31.93442383 86.57474609 32.70556641 86.58105469 C39.23008021 86.76628875 43.8365454 87.91069246 48.67700195 92.63769531 C50.57811745 96.03226877 50.37161086 99.26335821 50.29296875 103.046875 C50.28872391 103.81807678 50.28447906 104.58927856 50.28010559 105.3838501 C50.26335383 107.83959315 50.22570939 110.29450629 50.1875 112.75 C50.17244857 114.41795687 50.15876097 116.08592665 50.14648438 117.75390625 C50.11346194 121.83625578 50.06170484 125.91798732 50 130 C51.16917969 129.96519531 52.33835937 129.93039063 53.54296875 129.89453125 C55.09113141 129.86638284 56.63930968 129.83908381 58.1875 129.8125 C58.95642578 129.78736328 59.72535156 129.76222656 60.51757812 129.73632812 C65.21088275 129.67589931 68.15518992 130.00415794 72 133 C76.63978722 138.27792415 76.58831837 144.9481097 76.39453125 151.64453125 C75.70546541 157.50500215 73.49915339 162.06749062 69 166 C65.23699626 167.25433458 61.72789091 167.10695422 57.8125 167.0625 C57.06291016 167.05798828 56.31332031 167.05347656 55.54101562 167.04882812 C53.69397617 167.03706354 51.84697787 167.01912865 50 167 C50.02618408 168.1552417 50.05236816 169.3104834 50.0793457 170.50073242 C50.17000348 174.79627026 50.22730551 179.09172394 50.2746582 183.38793945 C50.29976702 185.24550609 50.33386134 187.10297427 50.37719727 188.96020508 C50.43801124 191.63387358 50.4662452 194.30623365 50.48828125 196.98046875 C50.51408768 197.80773972 50.5398941 198.63501068 50.56648254 199.48735046 C50.56855714 203.77454262 50.4181233 205.4663618 47.68823242 208.95043945 C40.38980194 214.51490443 32.90651884 214.81271984 24 214 C18.43185578 212.84889326 14.520367 210.49293856 11 206 C10.33029597 202.97998718 10.41561711 200.06117801 10.51171875 196.98046875 C10.51879349 196.12189774 10.52586823 195.26332672 10.53315735 194.3787384 C10.56105598 191.64742397 10.62378309 188.91819042 10.6875 186.1875 C10.71258886 184.3314099 10.73540101 182.47528754 10.75585938 180.61914062 C10.81086747 176.07863028 10.89710636 171.53966743 11 167 C10.07593857 167.00888245 9.15187714 167.01776489 8.19981384 167.0269165 C-0.524628 167.10718993 -9.24894512 167.16802921 -17.97367191 167.20724869 C-22.4587643 167.22809 -26.94355057 167.25634405 -31.4284668 167.30175781 C-35.75974458 167.34533951 -40.0907286 167.36916309 -44.42220879 167.37950897 C-46.07158467 167.3868783 -47.72094516 167.40126898 -49.37019539 167.42292023 C-51.68733105 167.45211925 -54.0032655 167.4559493 -56.32055664 167.45410156 C-58.29579063 167.46742523 -58.29579063 167.46742523 -60.31092834 167.48101807 C-64.9150197 166.88069058 -67.19180134 165.62858144 -71 163 C-74.43673773 157.52269924 -74.08199022 153.12355146 -73 147 C-71.84615952 141.97708655 -70.50819857 137.00838284 -69.16015625 132.03515625 C-68.76161769 130.54576912 -68.36363715 129.05623258 -67.96617126 127.56655884 C-66.8954722 123.56089902 -65.81641596 119.55753791 -64.73516846 115.5547142 C-63.83492822 112.21935413 -62.93854668 108.88296199 -62.04210854 105.54657841 C-59.96098522 97.80132749 -57.87327033 90.05787558 -55.78173828 82.31542969 C-53.74541725 74.77609971 -51.72300716 67.23315405 -49.70955181 59.68768787 C-48.06565761 53.52817852 -46.41398907 47.37079484 -44.75570393 41.21514416 C-43.78344348 37.60539428 -42.81459039 33.99481523 -41.85427856 30.38186646 C-40.79023779 26.38007763 -39.70848511 22.38328676 -38.625 18.38671875 C-38.31537827 17.21203033 -38.00575653 16.03734192 -37.68675232 14.82705688 C-34.40179552 2.83356687 -34.40179552 2.83356687 -29.24609375 -1.4609375 C-19.52119531 -6.37589697 -9.61604856 -4.35946225 0 0 Z " fill="#5DB9F0" transform="translate(436,19)"/>
<path d="M0 0 C4.84337782 2.84346039 8.59237983 6.32513329 12.4921875 10.296875 C13.08299103 10.89050842 13.67379456 11.48414185 14.28250122 12.09576416 C16.15145382 13.97582987 18.01329541 15.8627596 19.875 17.75 C21.14797243 19.03301368 22.42140545 20.31557055 23.6953125 21.59765625 C26.80222667 24.726513 29.90278675 27.86154134 33 31 C37.25730572 29.35558587 40.07026559 26.16483572 43.19140625 22.96875 C43.77792465 22.37703003 44.36444305 21.78531006 44.96873474 21.17565918 C46.83814675 19.28846961 48.70072644 17.39472318 50.5625 15.5 C52.42869733 13.60615708 54.29634278 11.71380168 56.16697693 9.82434082 C57.32948626 8.6496055 58.48931186 7.47220688 59.64613342 6.29187012 C65.6926018 0.1705302 65.6926018 0.1705302 69.875 -0.375 C73.84356926 0.10122831 75.37586666 0.9899647 78 4 C78.75 7.25 78.75 7.25 78 11 C72.71670383 18.58955827 65.11429209 24.99941643 58.5625 31.5 C57.4379167 32.61955632 56.31356595 33.73934629 55.18945312 34.859375 C52.46230656 37.57561534 49.73204093 40.28868292 47 43 C48.64441413 47.25730572 51.83516428 50.07026559 55.03125 53.19140625 C55.62296997 53.77792465 56.21468994 54.36444305 56.82434082 54.96873474 C58.71153039 56.83814675 60.60527682 58.70072644 62.5 60.5625 C64.39384292 62.42869733 66.28619832 64.29634278 68.17565918 66.16697693 C69.3503945 67.32948626 70.52779312 68.48931186 71.70812988 69.64613342 C77.8294698 75.6926018 77.8294698 75.6926018 78.375 79.875 C77.89877169 83.84356926 77.0100353 85.37586666 74 88 C70.75 88.75 70.75 88.75 67 88 C59.41044173 82.71670383 53.00058357 75.11429209 46.5 68.5625 C45.38044368 67.4379167 44.26065371 66.31356595 43.140625 65.18945312 C40.42438466 62.46230656 37.71131708 59.73204093 35 57 C32.19923613 58.27629537 30.16415401 59.59132895 28.00732422 61.78149414 C27.45350067 62.33869644 26.89967712 62.89589874 26.32907104 63.46998596 C25.74352448 64.06899216 25.15797791 64.66799835 24.5546875 65.28515625 C23.94360138 65.90144394 23.33251526 66.51773163 22.70291138 67.1526947 C20.75545618 69.11793324 18.81483091 71.08973764 16.875 73.0625 C14.92716399 75.03794275 12.97789254 77.01191351 11.02566528 78.98301697 C9.81202071 80.20893061 8.60105915 81.43750729 7.39303589 82.66896057 C2.2635793 87.8596023 2.2635793 87.8596023 -2.375 88.375 C-6 88 -6 88 -8.4375 85.875 C-10.27687349 82.49055278 -10.40821091 80.80499154 -10 77 C-8.43774414 74.63525391 -8.43774414 74.63525391 -6.22265625 72.3515625 C-5.40039551 71.49208008 -4.57813477 70.63259766 -3.73095703 69.74707031 C-2.82974121 68.84053711 -1.92852539 67.93400391 -1 67 C-0.06453881 66.04564185 0.87051407 65.09088333 1.80517578 64.13574219 C4.70123973 61.19210088 7.62983258 58.28209885 10.5625 55.375 C11.58161754 54.36091554 12.60049899 53.34659375 13.61914062 52.33203125 C16.07672412 49.88529165 18.53744246 47.44173456 21 45 C19.72370463 42.19923613 18.40867105 40.16415401 16.21850586 38.00732422 C15.66130356 37.45350067 15.10410126 36.89967712 14.53001404 36.32907104 C13.93100784 35.74352448 13.33200165 35.15797791 12.71484375 34.5546875 C12.09855606 33.94360138 11.48226837 33.33251526 10.8473053 32.70291138 C8.88206676 30.75545618 6.91026236 28.81483091 4.9375 26.875 C2.96205725 24.92716399 0.98808649 22.97789254 -0.98301697 21.02566528 C-2.20893061 19.81202071 -3.43750729 18.60105915 -4.66896057 17.39303589 C-9.88535865 12.23812655 -9.88535865 12.23812655 -10.3125 7.625 C-10 4 -10 4 -8.375 1.5625 C-5.24562501 -0.49629933 -3.69150037 -0.59064006 0 0 Z " fill="#F0F3F4" transform="translate(222,87)"/>
</svg>
