<svg width="202" height="229" viewBox="0 0 202 229" fill="none" xmlns="http://www.w3.org/2000/svg">
<path d="M29 114H164C168.418 114 172 117.582 172 122V192C172 196.418 168.418 200 164 200H29V114Z" fill="#CAD1D8"/>
<path fill-rule="evenodd" clip-rule="evenodd" d="M142 0H43C35.268 0 29 6.26807 29 14V215C29 222.732 35.268 229 43 229H188C195.732 229 202 222.732 202 215V57H156C148.268 57 142 50.7319 142 43V0Z" fill="#E2E5E7"/>
<path fill-rule="evenodd" clip-rule="evenodd" d="M156 57H202L142 0V43C142 50.7319 148.268 57 156 57Z" fill="#B0B7BD"/>
<path d="M202 97L156 57H202V97Z" fill="#CAD1D8"/>
<path d="M29 114H164C168.418 114 172 117.582 172 122V192C172 196.418 168.418 200 164 200H29V114Z" fill="#CAD1D8"/>
<rect y="107" width="172" height="86" rx="8" fill="#F15642"/>
<path d="M27.5909 173V126.455H45.0455C48.6212 126.455 51.6212 127.121 54.0455 128.455C56.4849 129.788 58.3258 131.621 59.5682 133.955C60.8258 136.273 61.4545 138.909 61.4545 141.864C61.4545 144.848 60.8258 147.5 59.5682 149.818C58.3106 152.136 56.4545 153.962 54 155.295C51.5455 156.614 48.5227 157.273 44.9318 157.273H33.3636V150.341H43.7955C45.8864 150.341 47.5985 149.977 48.9318 149.25C50.2652 148.523 51.25 147.523 51.8864 146.25C52.5379 144.977 52.8636 143.515 52.8636 141.864C52.8636 140.212 52.5379 138.758 51.8864 137.5C51.25 136.242 50.2576 135.265 48.9091 134.568C47.5758 133.856 45.8561 133.5 43.75 133.5H36.0227V173H27.5909ZM84.5511 173H68.7784V126.455H84.8693C89.4905 126.455 93.4602 127.386 96.7784 129.25C100.112 131.098 102.672 133.758 104.46 137.227C106.248 140.697 107.142 144.848 107.142 149.682C107.142 154.53 106.241 158.697 104.438 162.182C102.65 165.667 100.066 168.341 96.6875 170.205C93.3239 172.068 89.2784 173 84.5511 173ZM77.2102 165.705H84.142C87.3845 165.705 90.089 165.114 92.2557 163.932C94.4223 162.735 96.0511 160.955 97.142 158.591C98.233 156.212 98.7784 153.242 98.7784 149.682C98.7784 146.121 98.233 143.167 97.142 140.818C96.0511 138.455 94.4375 136.689 92.3011 135.523C90.1799 134.341 87.5436 133.75 84.392 133.75H77.2102V165.705ZM115.153 173V126.455H144.972V133.523H123.585V146.159H142.926V153.227H123.585V173H115.153Z" fill="white"/>
</svg>
